<svg id="Слой_1" data-name="Слой 1" xmlns="http://www.w3.org/2000/svg" viewBox="0 0 300 165.43"><defs><style>.cls-1{fill:#0039e9;}</style></defs><title>SOD-logo</title><path class="cls-1" d="M135.11,64.76l-7,6.13q-3.66-5.08-7.45-5.09a4.57,4.57,0,0,0-3,1A2.88,2.88,0,0,0,116.5,69a3.82,3.82,0,0,0,.84,2.34,62.32,62.32,0,0,0,6.88,6.34c3.59,3,5.76,4.88,6.52,5.67a19.84,19.84,0,0,1,4,5.51A13.86,13.86,0,0,1,136,94.63a13.19,13.19,0,0,1-4.2,10,15.27,15.27,0,0,1-10.94,4,16.3,16.3,0,0,1-9.18-2.59,20.36,20.36,0,0,1-6.7-8.11l7.9-4.76q3.56,6.54,8.19,6.54a6,6,0,0,0,4.06-1.41A4.18,4.18,0,0,0,126.76,95a5.68,5.68,0,0,0-1.24-3.36A35.86,35.86,0,0,0,120,86.55Q112,80,109.63,76.41a12.87,12.87,0,0,1-2.35-7.13,11.64,11.64,0,0,1,3.91-8.8,13.55,13.55,0,0,1,9.65-3.67,15.2,15.2,0,0,1,7,1.71A25.62,25.62,0,0,1,135.11,64.76Z"/><path class="cls-1" d="M168.22,56.81a24.5,24.5,0,0,1,18,7.58,25.21,25.21,0,0,1,7.53,18.47,24.93,24.93,0,0,1-7.43,18.28,25.75,25.75,0,0,1-36.49-.2,26,26,0,0,1,5.49-40.66A25.32,25.32,0,0,1,168.22,56.81Zm-.1,9.19a15.48,15.48,0,0,0-11.51,4.76,16.58,16.58,0,0,0-4.67,12.1q0,8.19,5.87,13a16.14,16.14,0,0,0,10.48,3.72,15.27,15.27,0,0,0,11.37-4.83,17.4,17.4,0,0,0,0-23.82A15.4,15.4,0,0,0,168.12,66Z"/><path class="cls-1" d="M202.64,58.05h11.12q10.76,0,16,2.67a20.7,20.7,0,0,1,8.61,8.66,28.07,28.07,0,0,1,3.39,14,28.27,28.27,0,0,1-1.9,10.48,21.77,21.77,0,0,1-5.22,7.93,18.6,18.6,0,0,1-7.22,4.36q-3.89,1.2-13.47,1.2H202.64Zm9.32,9V98.22h4.36q6.44,0,9.34-1.48a11.2,11.2,0,0,0,4.74-5,18.26,18.26,0,0,0,1.85-8.6c0-5.23-1.47-9.3-4.4-12.18q-3.94-3.9-12.7-3.9Z"/><path class="cls-1" d="M46.84,60.9a4.58,4.58,0,1,0,4.58,4.58A4.59,4.59,0,0,0,46.84,60.9Z"/><path class="cls-1" d="M60.64,72.42A4.58,4.58,0,1,0,65.22,77,4.59,4.59,0,0,0,60.64,72.42Z"/><path class="cls-1" d="M74.4,83.37A4.58,4.58,0,1,0,79,88,4.59,4.59,0,0,0,74.4,83.37Z"/><path class="cls-1" d="M74.4,70.05a4.58,4.58,0,1,0,0-9.15h0a4.58,4.58,0,0,0,0,9.15Z"/></svg>