<svg id="Слой_1" data-name="Слой 1" xmlns="http://www.w3.org/2000/svg" viewBox="0 0 270 115"><defs><style>.cls-1{fill:#0039e9;}</style></defs><title>SOD-logo-small</title><path class="cls-1" d="M120.11,41.54l-7,6.14q-3.66-5.1-7.45-5.1a4.57,4.57,0,0,0-3,1,2.9,2.9,0,0,0-1.17,2.23,3.82,3.82,0,0,0,.84,2.35,63.39,63.39,0,0,0,6.88,6.34q5.39,4.48,6.52,5.66a20,20,0,0,1,4.05,5.52A13.86,13.86,0,0,1,121,71.42a13.19,13.19,0,0,1-4.2,10,15.31,15.31,0,0,1-10.94,4,16.3,16.3,0,0,1-9.18-2.58A20.43,20.43,0,0,1,90,74.71L97.86,70q3.56,6.52,8.19,6.53a6.05,6.05,0,0,0,4.06-1.4,4.2,4.2,0,0,0,1.65-3.26,5.68,5.68,0,0,0-1.24-3.35A35.86,35.86,0,0,0,105,63.34Q97,56.77,94.63,53.2a12.87,12.87,0,0,1-2.35-7.13,11.64,11.64,0,0,1,3.91-8.8,13.55,13.55,0,0,1,9.65-3.67,15.2,15.2,0,0,1,7,1.71A25.72,25.72,0,0,1,120.11,41.54Z"/><path class="cls-1" d="M153.22,33.6a24.46,24.46,0,0,1,18,7.58,25.21,25.21,0,0,1,7.53,18.47,24.93,24.93,0,0,1-7.43,18.28,25.76,25.76,0,0,1-36.49-.21,26.34,26.34,0,0,1-3.92-31.25A25.82,25.82,0,0,1,153.22,33.6Zm-.1,9.19a15.44,15.44,0,0,0-11.51,4.76,16.58,16.58,0,0,0-4.67,12.1q0,8.19,5.87,12.94a16.09,16.09,0,0,0,10.48,3.73,15.27,15.27,0,0,0,11.37-4.83,16.39,16.39,0,0,0,4.7-11.91,16.47,16.47,0,0,0-4.73-11.92A15.42,15.42,0,0,0,153.12,42.79Z"/><path class="cls-1" d="M187.64,34.84h11.12q10.76,0,16,2.66a20.78,20.78,0,0,1,8.61,8.67,28,28,0,0,1,3.39,14,28.27,28.27,0,0,1-1.9,10.48,21.85,21.85,0,0,1-5.22,7.93A18.45,18.45,0,0,1,212.4,83q-3.89,1.22-13.47,1.21H187.64Zm9.32,9V75h4.36q6.44,0,9.34-1.48a11.17,11.17,0,0,0,4.74-5A18.19,18.19,0,0,0,217.25,60q0-7.86-4.4-12.18-3.94-3.9-12.7-3.9Z"/><path class="cls-1" d="M31.84,37.69a4.58,4.58,0,1,0,4.58,4.57A4.58,4.58,0,0,0,31.84,37.69Z"/><path class="cls-1" d="M45.64,49.21a4.58,4.58,0,1,0,4.58,4.58A4.59,4.59,0,0,0,45.64,49.21Z"/><path class="cls-1" d="M59.4,60.16A4.58,4.58,0,1,0,64,64.74,4.59,4.59,0,0,0,59.4,60.16Z"/><path class="cls-1" d="M59.4,46.84A4.58,4.58,0,0,0,64,42.26a4.58,4.58,0,0,0-4.58-4.57h0a4.58,4.58,0,0,0,0,9.15Z"/></svg>